<?xml version="1.0" standalone="no"?>
<!DOCTYPE svg PUBLIC "-//W3C//DTD SVG 20010904//EN"
 "http://www.w3.org/TR/2001/REC-SVG-20010904/DTD/svg10.dtd">
<svg version="1.0" xmlns="http://www.w3.org/2000/svg"
 width="735.000000pt" height="868.000000pt" viewBox="0 0 735.000000 868.000000"
 preserveAspectRatio="xMidYMid meet">

<g transform="translate(0.000000,868.000000) scale(0.100000,-0.100000)"
fill="#000000" stroke="none">
<path d="M5216 7861 c-36 -24 -55 -57 -56 -94 0 -65 70 -125 131 -112 37 8 85
56 92 92 11 59 -52 133 -113 133 -14 0 -38 -9 -54 -19z"/>
<path d="M5616 7861 c-83 -55 -70 -174 22 -202 128 -38 199 148 78 205 -44 21
-64 20 -100 -3z"/>
<path d="M6018 7865 c-33 -18 -61 -69 -60 -107 1 -42 37 -86 81 -99 47 -14 98
6 124 50 27 46 22 86 -15 126 -39 42 -89 53 -130 30z"/>
<path d="M5234 5040 c-34 -13 -74 -69 -74 -101 0 -63 53 -119 112 -119 30 0
84 33 98 61 30 55 5 125 -55 153 -37 18 -50 19 -81 6z"/>
<path d="M5624 5034 c-83 -41 -85 -157 -3 -200 36 -18 63 -18 99 1 80 42 77
161 -6 200 -40 19 -51 19 -90 -1z"/>
<path d="M6018 5035 c-55 -31 -76 -109 -42 -160 34 -51 94 -68 144 -39 66 40
78 114 28 169 -39 42 -89 53 -130 30z"/>
<path d="M5633 2205 c-75 -32 -98 -122 -44 -175 52 -52 113 -52 163 2 74 80
-18 215 -119 173z"/>
<path d="M6023 2200 c-83 -37 -88 -143 -10 -190 40 -25 73 -25 113 -1 116 71
21 247 -103 191z"/>
<path d="M5194 2176 c-56 -56 -44 -135 26 -171 16 -8 39 -15 52 -15 37 0 88
37 104 75 12 30 12 40 0 68 -20 48 -61 77 -108 77 -32 0 -47 -7 -74 -34z"/>
</g>
</svg>
