<?xml version="1.0" standalone="no"?>
<!DOCTYPE svg PUBLIC "-//W3C//DTD SVG 20010904//EN"
 "http://www.w3.org/TR/2001/REC-SVG-20010904/DTD/svg10.dtd">
<svg version="1.0" xmlns="http://www.w3.org/2000/svg"
 width="512.000000pt" height="512.000000pt" viewBox="0 0 512.000000 512.000000"
 preserveAspectRatio="xMidYMid meet">

<g transform="translate(0.000000,512.000000) scale(0.100000,-0.100000)"
fill="#000000" stroke="none">
<path d="M363 5006 c-102 -32 -176 -97 -222 -196 l-26 -55 0 -1635 c0 -1610 0
-1636 20 -1689 27 -73 108 -161 177 -192 53 -24 57 -24 483 -29 l430 -5 5 -81
c7 -115 20 -127 167 -155 67 -12 73 -16 93 -67 12 -31 11 -35 -39 -110 -84
-128 -87 -121 132 -339 218 -219 211 -216 338 -132 76 50 79 50 114 38 20 -8
40 -18 44 -24 4 -5 15 -48 24 -95 14 -71 22 -90 47 -112 l30 -28 254 0 254 0
30 25 c25 21 32 38 47 115 18 95 21 99 72 119 31 13 36 11 112 -38 129 -83
120 -86 338 132 219 218 216 211 132 339 -50 75 -51 79 -39 110 20 51 26 55
93 67 147 28 160 40 167 155 l5 81 70 3 70 3 285 -468 c296 -488 333 -538 422
-582 159 -77 362 -20 457 127 65 101 75 231 27 337 -13 28 -177 302 -365 609
l-341 560 0 62 c0 35 7 93 16 131 20 82 21 240 3 303 -11 36 -14 297 -19 1265
l-5 1220 -28 53 c-37 70 -91 123 -163 158 l-59 29 -1805 2 c-1474 1 -1813 -1
-1847 -11z m3525 -382 c20 -14 22 -23 22 -114 0 -76 -4 -102 -16 -114 -14 -14
-128 -16 -1104 -16 -976 0 -1090 2 -1104 16 -12 12 -16 38 -16 114 0 91 2 100
22 114 20 14 141 16 1098 16 957 0 1078 -2 1098 -16z m-3220 -8 c86 -47 78
-184 -13 -222 -44 -18 -59 -18 -102 3 -120 57 -80 233 52 232 22 0 50 -5 63
-13z m366 -16 c57 -51 60 -125 6 -179 -77 -77 -210 -22 -210 87 0 108 123 163
204 92z m345 5 c39 -34 56 -85 42 -127 -25 -70 -93 -109 -155 -88 -94 31 -119
147 -46 213 42 37 115 38 159 2z m2701 -1276 l0 -671 -22 16 c-135 95 -249
137 -394 144 -94 4 -103 3 -123 -17 -40 -40 -29 -69 104 -287 69 -113 125
-209 125 -215 0 -6 -25 -52 -55 -103 l-54 -93 -113 -6 c-84 -5 -114 -4 -120 6
-125 211 -258 414 -276 423 -59 29 -104 -18 -155 -165 -58 -166 -46 -342 33
-506 97 -199 275 -335 481 -366 41 -6 84 -13 95 -15 12 -2 31 -20 43 -39 l20
-35 -1622 0 c-1560 0 -1624 1 -1657 19 -19 10 -45 33 -58 51 l-22 33 0 1248 0
1249 1885 0 1885 0 0 -671z m-195 -717 c68 -34 184 -153 218 -224 74 -155 76
-311 5 -468 -16 -36 -28 -74 -25 -85 2 -11 176 -303 387 -649 358 -587 384
-633 388 -683 17 -200 -225 -312 -360 -167 -14 16 -194 304 -398 639 -204 336
-380 618 -392 628 -13 11 -37 17 -67 17 -244 0 -467 175 -521 409 -14 59 -9
246 6 261 6 6 48 -53 113 -159 63 -104 111 -173 126 -179 30 -14 352 4 378 21
28 18 187 297 187 327 0 15 -40 92 -96 184 -52 87 -98 164 -101 172 -7 18 79
-7 152 -44z m-1071 -1411 c10 -16 -56 -131 -102 -178 -26 -25 -76 -60 -112
-77 -59 -28 -74 -31 -165 -31 -91 0 -106 3 -165 31 -36 17 -86 52 -112 77 -46
47 -112 162 -102 178 7 12 751 12 758 0z m-945 -68 c74 -242 316 -423 566
-423 250 0 492 181 566 423 l21 67 209 0 c196 0 209 -1 209 -18 0 -15 -15 -22
-77 -36 -43 -9 -86 -22 -95 -30 -22 -16 -99 -199 -106 -249 -4 -33 2 -48 41
-106 l45 -68 -101 -101 -102 -100 -65 44 c-56 39 -71 44 -105 41 -50 -5 -234
-82 -251 -105 -14 -18 -16 -27 -34 -115 l-11 -57 -144 0 c-162 0 -142 -12
-165 101 -14 71 -31 87 -145 134 -132 56 -156 56 -235 1 l-65 -44 -102 100
-101 101 45 68 c39 58 45 73 41 106 -7 50 -84 233 -106 249 -9 7 -52 21 -94
30 -63 14 -78 20 -78 35 0 18 12 19 209 19 l209 0 21 -67z"/>
<path d="M850 3509 c-50 -15 -97 -54 -120 -99 -18 -35 -20 -59 -20 -235 0
-182 -1 -196 -20 -215 -11 -11 -31 -20 -43 -20 -56 0 -82 -86 -38 -122 13 -10
32 -18 42 -18 10 0 28 -9 39 -20 19 -19 20 -33 20 -215 0 -172 2 -200 19 -233
42 -82 88 -102 239 -102 133 0 152 8 152 68 0 58 -26 72 -138 72 -138 0 -132
-11 -132 231 0 174 -2 199 -20 233 -19 38 -19 39 0 77 18 34 20 59 20 232 0
236 -5 227 124 227 116 0 146 15 146 76 0 54 -28 69 -139 71 -53 1 -112 -3
-131 -8z"/>
<path d="M2093 3510 c-17 -7 -95 -153 -318 -600 -162 -325 -295 -602 -295
-615 0 -55 86 -88 123 -47 20 22 597 1179 597 1197 0 19 -41 62 -65 68 -11 3
-30 2 -42 -3z"/>
<path d="M2588 3505 c-47 -26 -46 -99 2 -125 10 -5 61 -10 113 -10 63 0 98 -4
105 -12 6 -8 12 -96 14 -213 3 -170 7 -205 22 -237 19 -36 19 -37 0 -75 -16
-33 -19 -67 -22 -238 -2 -110 -8 -204 -13 -210 -6 -5 -58 -12 -116 -15 -100
-5 -107 -6 -126 -32 -13 -18 -18 -34 -13 -51 12 -51 28 -57 151 -57 124 0 155
8 199 48 58 55 66 87 66 298 0 172 2 193 18 207 10 10 28 17 39 17 27 0 63 41
63 73 0 31 -31 67 -58 67 -10 0 -28 7 -40 16 -21 15 -22 20 -22 212 0 185 -1
201 -22 242 -27 54 -71 85 -139 99 -71 16 -189 13 -221 -4z"/>
<path d="M1180 3075 c-143 -96 -218 -152 -224 -168 -19 -53 -5 -68 214 -223
115 -82 221 -153 235 -159 58 -21 115 48 82 99 -9 14 -89 77 -177 140 l-161
115 168 113 c186 125 204 146 166 196 -14 19 -30 28 -54 29 -29 2 -67 -20
-249 -142z"/>
<path d="M2200 3200 c-25 -25 -26 -74 -2 -97 10 -10 86 -63 170 -118 83 -55
152 -103 152 -106 0 -4 -74 -59 -164 -123 -90 -64 -167 -123 -170 -132 -19
-49 16 -104 65 -104 33 0 447 295 469 333 26 47 3 70 -228 225 -225 150 -252
162 -292 122z"/>
<path d="M4625 593 c-50 -13 -95 -71 -95 -123 0 -46 32 -92 77 -112 40 -17 49
-18 86 -6 77 24 110 115 67 185 -10 17 -27 36 -37 41 -25 13 -74 21 -98 15z"/>
</g>
</svg>
